<svg width="64" height="64" viewBox="0 0 64 64" fill="none" xmlns="http://www.w3.org/2000/svg">
<path d="M50.6667 8H13.3333C10.3878 8 8 10.3878 8 13.3333V50.6667C8 53.6122 10.3878 56 13.3333 56H50.6667C53.6122 56 56 53.6122 56 50.6667V13.3333C56 10.3878 53.6122 8 50.6667 8Z" stroke="#666666" stroke-width="2" stroke-linecap="round" stroke-linejoin="round"/>
<path d="M22.6667 26.6666C24.8759 26.6666 26.6667 24.8758 26.6667 22.6666C26.6667 20.4575 24.8759 18.6666 22.6667 18.6666C20.4576 18.6666 18.6667 20.4575 18.6667 22.6666C18.6667 24.8758 20.4576 26.6666 22.6667 26.6666Z" stroke="#666666" stroke-width="2" stroke-linecap="round" stroke-linejoin="round"/>
<path d="M55.9999 40L42.6666 26.6666L13.3333 56" stroke="#666666" stroke-width="2" stroke-linecap="round" stroke-linejoin="round"/>
</svg>
